<svg width="152" height="152" viewBox="0 0 152 152" fill="none" xmlns="http://www.w3.org/2000/svg">
<g clip-path="url(#clip0)">
<path d="M76 6.14334C89.8203 6.14065 103.331 10.2365 114.823 17.9129C126.315 25.5893 135.273 36.5014 140.563 49.2691C145.853 62.0368 147.238 76.0864 144.542 89.6413C141.846 103.196 135.192 115.647 125.419 125.419C115.647 135.192 103.196 141.846 89.6413 144.542C76.0864 147.238 62.0368 145.853 49.2691 140.563C36.5015 135.273 25.5893 126.315 17.9129 114.823C10.2365 103.331 6.14065 89.8203 6.14335 76C6.16863 57.4806 13.5366 39.727 26.6318 26.6318C39.727 13.5366 57.4806 6.16863 76 6.14334ZM76 0C60.9687 0 46.2748 4.45732 33.7767 12.8083C21.2785 21.1593 11.5374 33.0289 5.78516 46.916C0.0328994 60.8032 -1.47215 76.0843 1.46032 90.8269C4.3928 105.57 11.6311 119.111 22.2599 129.74C32.8887 140.369 46.4306 147.607 61.1732 150.539C75.9157 153.472 91.1965 151.967 105.084 146.215C118.971 140.463 130.841 130.721 139.192 118.224C147.543 105.725 152 91.0314 152 76C152 55.8436 143.993 36.5127 129.74 22.2599C115.488 8.00715 96.1566 0 76 0Z" fill="white"/>
<path d="M116.041 76L52.8737 34.4846C52.9556 97.0714 52.8737 66.3617 52.8737 117.515L116.041 76Z" fill="white"/>
</g>
<defs>
<clipPath id="clip0">
<rect width="152" height="152" fill="white"/>
</clipPath>
</defs>
</svg>
